<svg viewBox="0 0 220 220" xmlns="http://www.w3.org/2000/svg" fill-rule="evenodd" clip-rule="evenodd" stroke-linejoin="round" stroke-miterlimit="2">
    <g id="innocent-eyes">
        <path d="M11.879 23.761c-6.084 0-11.783-4.63-11.798-12.605-.006-3.175-.397-8.332.594-8.785C2.848 1.38 13.352-.407 16.816.597c5.945 1.723 8.784 6.574 8.215 13.405-.608 7.305-7.068 9.759-13.152 9.759z" fill="#31323d"/>
        <path d="M19.154 5.915c1.768-.048 3.232 1.43 3.268 3.297.036 1.867-1.37 3.421-3.138 3.468-1.768.047-3.233-1.43-3.269-3.297-.036-1.867 1.37-3.421 3.139-3.468z" fill="#fff"/>
        <ellipse cx="13.114" cy="12.925" rx="1.548" ry="1.82" fill="#fff"/>
        <g>
            <path d="M74.047 23.58C84.384 20.537 84.96 12.924 83.73 8.998 80.342-1.811 72.285-.925 65.779 1.681c-6.029 2.415-7.476 8.102-6.696 12.929 1.112 6.883 8.493 10.875 14.964 8.97z" fill="#31323d"/>
            <path d="M77.588 4.051c-1.768-.047-3.233 1.431-3.269 3.298-.036 1.867 1.37 3.421 3.138 3.468 1.768.047 3.233-1.43 3.269-3.297.036-1.867-1.37-3.421-3.138-3.469z" fill="#fff"/>
            <ellipse cx="72.392" cy="12.742" rx="1.548" ry="1.82" fill="#fff"/>
        </g>
    </g>
</svg>
