<svg
  viewBox="0 0 220 220"
  xmlns="http://www.w3.org/2000/svg"
  fill-rule="evenodd"
  clip-rule="evenodd"
  stroke-linecap="round"
  stroke-miterlimit="10"
>
  <path
    d="M104.159.152c13.19 20.67 5.2 35.945-4.09 50.518l-82.38 1.13C-7.851 34.373-1.441 13.55 10.219 0l93.94.152zm-58.02 30.214l-.08 5.036s-13.21 3.768-19.96 2.12c-8.93-2.18-11.87-6.694-12.65-12.085-.51-3.458-1.52-11.745-1.52-11.745s8.53-.82 10.96-.864c4.65-.087 8.09-.012 8.81.003 17.53.378 14.44 17.535 14.44 17.535zm22.5 4.412s3.21 1.707 5.73 2.312c3.69.883 5.14 1.083 10.78.578 8.92-.8 13.52-7.81 14.06-13.23.35-3.478.99-11.801.99-11.801s-8.56-.435-10.99-.371c-4.65.123-9.2.782-9.76.839-16.5 1.695-10.81 21.673-10.81 21.673z"
    fill="#ebebeb"
  />
  <path
    d="M1303.77 1142l1.05 45.88s-112.1 39.1-170.7 26.53c-77.48-16.61-104.27-56.64-112.85-105.43-5.51-31.3-17.06-106.36-17.06-106.36s73.01-10.554 93.83-11.845c39.92-2.474 69.45-3.043 75.71-3.165 150.68-2.921 130.02 154.39 130.02 154.39z"
    fill="none"
    stroke="#31323d"
    stroke-width="10"
    transform="matrix(.11623 .00463 -.0044 .10968 -100.795 -100.687)"
  />
  <path
    d="M1290.67 1179.26s-26.23 17.97-47.4 25.4c-30.97 10.88-43.23 13.81-91.91 13.57-76.96-.38-121.51-60.46-130.09-109.25-5.51-31.3-17.06-106.36-17.06-106.36s73.01-10.554 93.83-11.845c39.92-2.474 79.34-.004 84.19.087 142.6 2.652 108.44 188.398 108.44 188.398z"
    fill="none"
    stroke="#31323d"
    stroke-width="10"
    transform="matrix(-.1159 .00985 .00934 .10937 206.805 -106.678)"
  />
  <g>
    <path
      d="M41.746 15.914s-7.13-6.402-16.628-5.957c-8.654.406-13.289 1.232-13.289 1.232l-5.666.718s-.569 2.717 10.263 1.186c5.748-.814 17.314-.566 22.107.977 1.084.35 3.213 1.844 3.213 1.844z"
      fill="#32333e"
    />
    <path
      d="M70.754 16.26s7.016-6.935 16.524-6.783c8.662.139 13.32.82 13.32.82l4.923.574s-.72 2.355-14.224 1.328c-5.772-.44-11.904.318-17.06 1.873-1.091.33-3.483 2.187-3.483 2.187z"
      fill="#32333e"
    />
  </g>
</svg>
