<svg width="263" height="400" xmlns="http://www.w3.org/2000/svg" fill-rule="evenodd" clip-rule="evenodd" stroke-linecap="round" stroke-linejoin="round" stroke-miterlimit="1.5">
    <path d="M43.279 165.617c-2.345-3.303-7.351-4.36-8.207-10.497-1.299-9.315 9.23-11.673 7.848-15.02-4.943-11.973-9.499-21.977-9.499-35.727 0-19.219.921-32.855 10.181-48.205.933-1.547-10.025-6.473-18.051-1.689-11.855 7.068-19.204 6.272-15.964-11.535.994-5.464 8.648-21.677 30.679-21.405 15.133.186 18.557 9.16 19.814 7.845C78.192 10.431 101.249 1.5 130.334 1.5c30.346 0 54.042 9.343 72.725 30.411 1.691 1.907 9.812-4.592 17.928-6.285 21.173-4.416 32.732 12.708 33.012 19.406.99 23.701-10.099 9.722-21.327 9.141-8.105-.42-15.198 1.222-14.44 2.71 7.066 13.868 10.073 29.522 10.073 46.142 0 13.751-5.749 25.043-10.694 37.018-1.555 3.764 8.341 6.912 7.918 16.106-.351 7.643-5.737 7.072-8.353 10.583 6.464 7.26 12.766 15.267 18.229 23.604 21.975 33.537 23.896 65.011 25.531 99.392 3.644 76.607-48.25 108.428-110.03 108.428h-37.407c-61.78 0-114.026-39.489-111.939-111.939 1.026-35.577 7.456-67.345 26.763-99.255 5.069-8.379 9.912-15.478 14.956-21.345z" fill="#963" stroke="#000" stroke-width="3"/>
    <path d="M117.378 3.685s2.936 7.629.272 17.732c-2.016 7.644-14.653 15.007-24.267 16.539-12.427 1.982-4.694 30.751-19.392 46.916-17.987 19.781-39.094 23.174-39.094 17.918 0-19.219 1.971-33.149 10.488-46.696.614-.976-9.318-7.162-17.382-4.28-4.743 1.695-9.534 5.401-13.333 5.398-6.089-.006-5.193-10.503-2.919-15.976 2.33-5.608 9.114-18.061 27.543-18.097 15.133-.029 20.245 8.901 21.549 7.633C71.496 20.416 79.384 15.14 87.948 11.393c3.356-1.468 9.251-3.621 15.26-4.929 7.364-1.603 14.17-2.779 14.17-2.779z" fill="#c93"/>
</svg>
