<svg
  
  xmlns="http://www.w3.org/2000/svg"
  fill-rule="evenodd"
  clip-rule="evenodd"
  stroke-linejoin="round"
  stroke-miterlimit="2"
>
  <path
    d="M4.95.35c1.303-.158 7.103-.995 13.435.618 15.453 3.943 16.798 13.877 16.798 13.877s-2.561 4.874-11.862 7.439c-4.287 1.181-12.857 1.131-17.757-3.044C-2.55 12.327.606 1.056.606 1.056S1.442.77 4.95.35z"
    fill="#31323d"
  />
  <path
    d="M8.735 1.694c2.944.366 5.143.712 4.81 3.37-.335 2.658-2.996 4.518-5.941 4.152-2.946-.367-5.065-2.822-4.731-5.48.334-2.658 2.916-2.409 5.862-2.042z"
    fill="#fff"
  />
  <path
    d="M12.478 10.318c1.418-.215 2.379-.114 2.6 1.343.22 1.456-.751 2.812-2.169 3.026-1.417.215-2.746-.792-2.967-2.248-.22-1.456 1.119-1.906 2.536-2.121z"
    fill="#fff"
  />
</svg>
