<svg
  viewBox="0 0 180 180"
  xmlns="http://www.w3.org/2000/svg"
  fill-rule="evenodd"
  clip-rule="evenodd"
  stroke-linejoin="round"
  stroke-miterlimit="2"
>
  <path
    d="M30.232.353c-1.303-.158-7.103-.995-13.435.619C1.345 4.914 0 14.848 0 14.848s2.561 4.874 11.863 7.439c4.286 1.181 12.856 1.131 17.756-3.044C37.733 12.33 34.576 1.06 34.576 1.06S33.74.773 30.232.353z"
    fill="#31323d"
  />
  <path
    d="M27.155 1.047c-2.934.365-5.127.71-4.795 3.36.333 2.65 2.987 4.504 5.923 4.139C31.22 8.18 33.333 5.733 33 3.083 32.667.433 30.092.68 27.155 1.047z"
    fill="#fff"
  />
  <path
    d="M23.423 9.648c-1.413-.215-2.37-.113-2.59 1.338-.22 1.452.747 2.804 2.16 3.018 1.414.214 2.739-.79 2.959-2.242.22-1.452-1.115-1.9-2.529-2.114z"
    fill="#fff"
  />
</svg>
