<svg
  viewBox="0 0 180 180"
  xmlns="http://www.w3.org/2000/svg"
  xmlns:serif="http://www.serif.com/"
  fill-rule="evenodd"
  clip-rule="evenodd"
  stroke-linejoin="round"
  stroke-miterlimit="2"
>
  <path
    d="M1.492.137c2.29-.017 5.32.223 9.258 1.16 7.605 1.81 10.96 5.808 10.96 5.808s-.608 6.543-8.347 8.732c-3.366.952-7.03-.704-9.785-3.193C-.149 9.274.002.351.002.351S1.027.049 4.398.004c.698-.01-4.947.146-2.906.133z"
    fill="#31323d"
  />
  <path
    d="M4.748.491c1.84.23 3.216.446 3.007 2.107-.209 1.662-1.873 2.825-3.714 2.596C2.199 4.965.874 3.43 1.083 1.768 1.292.107 2.907.262 4.748.491z"
    fill="#fff"
  />
  <path
    d="M7.09 5.883c.886-.134 1.486-.07 1.624.84.138.91-.469 1.758-1.355 1.892-.886.134-1.717-.495-1.855-1.406-.138-.91.7-1.191 1.585-1.326z"
    fill="#fff"
  />
  <g serif:id="iris-left">
    <path
      d="M76.316.137c-2.29-.017-5.32.223-9.258 1.16-7.605 1.81-10.96 5.808-10.96 5.808s.608 6.543 8.347 8.732c3.366.952 7.03-.704 9.785-3.193C77.957 9.274 77.806.351 77.806.351S76.78.049 73.41.004c-.698-.01 4.946.146 2.906.133z"
      fill="#31323d"
    />
    <path
      d="M73.06.491c-1.84.23-3.216.446-3.007 2.107.209 1.662 1.872 2.825 3.714 2.596 1.842-.229 3.167-1.764 2.958-3.426C76.515.107 74.9.262 73.06.491z"
      fill="#fff"
    />
    <path
      d="M70.719 5.883c-.887-.134-1.487-.07-1.625.84-.138.91.469 1.758 1.355 1.892.886.134 1.717-.495 1.855-1.406.138-.91-.7-1.191-1.585-1.326z"
      fill="#fff"
    />
  </g>
</svg>
