<svg
  
  xmlns="http://www.w3.org/2000/svg"
  xmlns:serif="http://www.serif.com/"
  fill-rule="evenodd"
  clip-rule="evenodd"
  stroke-linecap="round"
  stroke-miterlimit="10"
>
  <path
    d="M105.167 4.152c11.945 4.75 5.438 33.1-6.44 38.02-15.188 6.29-65.54 6.45-84.698-.28-6.3-2.21-13.88-8.88-13.922-17.78-.044-9.03-1.038-15.02 4.058-19.54 5.96-5.28 85.24-6.69 101.002-.42zm-63.351 17.16c3.225 4.05 2.574 5.24 2.574 5.24s-6.82 9.85-19.484 8.61c-9.121-.89-13.174-5.84-14.596-11.12-1.77-6.58.05-10.83.05-10.83s4.799-.71 7.214-.85c7.082-.38 18.586 1.83 24.242 8.95zm29.552 0c-3.225 4.05-2.574 5.24-2.574 5.24s6.819 9.85 19.485 8.61c9.12-.89 13.174-5.84 14.595-11.12 1.77-6.58-.051-10.83-.051-10.83s-4.798-.71-7.213-.85c-7.082-.38-18.585 1.83-24.242 8.95z"
    fill="#ebebeb"
  />
  <path
    d="M1278.09 1064.6c29.2 35.57 24 46.62 24 46.62s-55.35 91.65-164.93 85.03c-78.92-4.77-115.56-48.19-129.64-95.52-17.533-58.93-3.31-98.11-3.31-98.11s41.1-8.223 61.86-10.278c60.91-6.025 160.81 9.868 212.02 72.258z"
    fill="none"
    stroke="#31323d"
    stroke-width="10"
    transform="matrix(.11585 .00461 -.00443 .1102 -101.575 -101.808)"
  />
  <path
    d="M1278.09 1064.6c29.2 35.57 24 46.62 24 46.62s-55.35 91.65-164.93 85.03c-78.92-4.77-115.56-48.19-129.64-95.52-17.533-58.93-3.31-98.11-3.31-98.11s41.1-8.223 61.86-10.278c60.91-6.025 160.81 9.868 212.02 72.258z"
    fill="none"
    stroke="#31323d"
    stroke-width="10"
    transform="matrix(-.11585 .00461 .00443 .1102 214.63 -101.528)"
  />
  <path
    d="M41.676 20.965s-8.81-10.035-18.29-10.786c-8.637-.686-13.451.724-13.451.724L4.65 14.956s2.409-2.945 15.95-2.685c5.787.11 10.201 1.382 14.48 4.037 4.099 2.541 6.596 4.657 6.596 4.657z"
    fill="#32333e"
  />
  <path
    d="M71.166 21.496S79.462 10.93 88.94 10.18c8.638-.686 13.452.724 13.452.724l5.284 4.053s-2.734-1.796-7.409-2.23c-2.37-.22-5.242-.58-8.54-.455-4.22.16-10.201 1.382-14.48 4.037-4.099 2.541-6.082 5.188-6.082 5.188z"
    fill="#32333e"
    serif:id="eye-brows"
  />
</svg>
