<svg
        class="gato-eye-background"
        viewBox="0 0 200 200"
        xmlns="http://www.w3.org/2000/svg"
        fill-rule="evenodd"
        clip-rule="evenodd"
        stroke-linecap="round"
        stroke-miterlimit="10"
      >
        <path
          d="M39.585 23.623l-.08 5.036s-13.202 3.77-19.958 2.12c-8.932-2.18-11.87-6.695-12.652-12.086C6.393 15.235 5.381 6.95 5.381 6.95s8.533-.82 10.958-.865c4.651-.086 8.086-.012 8.814.004 17.527.377 14.432 17.535 14.432 17.535z"
          fill="#fff"
          fill-rule="nonzero"
        />
          <path
            d="M63.163 28.145s3.208 1.707 5.73 2.31c3.692.885 5.14 1.085 10.78.58 8.917-.8 13.52-7.81 14.058-13.231.347-3.478.985-11.8.985-11.8s-8.56-.435-10.986-.371c-4.65.122-9.196.78-9.757.839-16.504 1.695-10.81 21.673-10.81 21.673z"
            fill="#fff"
            fill-rule="nonzero"
          />
      </svg>