<svg
  xmlns="http://www.w3.org/2000/svg"
  xmlns:serif="http://www.serif.com/"
  fill-rule="evenodd"
  clip-rule="evenodd"
  stroke-linecap="round"
  stroke-linejoin="round"
  stroke-miterlimit="1.5"
>
  <path
    serif:id="body"
    d="M144.546 139.301c2.072-22.227-23.528-44.531-43.91-44.513l-48.505-.453c-25.082 8.682-36.407 30.034-34.627 44.966 1.38 11.576 7.828 16.382 18.867 21.901 8.482 4.241 20.396 5.795 44.075 5.586 26.423-.234 32.369-1.226 42.515-4.391 10.951-3.417 20.485-11.3 21.585-23.096z"
    fill="#ebebeb"
    stroke="#31323d"
    stroke-width="3"
  />
  <path
    d="M82.335 2.992c15.06.072 18.288.877 36.383 5.898 3.737 1.037 28.466-10.802 30.238-6.163 1.097 2.873-11.145 27.172-9.867 30.016 6.123 13.633 9.331 24.202 10.909 32.245 6.78 34.55-14.997 56.206-72.664 56.773-52.108.513-82.685-16.685-74.523-57.927 1.716-8.674 3.801-14.935 8.932-27.777C13.862 30.755-.744 4.52 2.891 1.815c3.335-2.483 31.192 10.599 35.023 8.658 11.942-6.05 28.656-7.557 44.421-7.481z"
    fill="#ebebeb"
    stroke="#31323d"
    stroke-width="3"
  />
  <g fill="#ccc">
    <path
      d="M10.526 9.593c2.47-2.811 20.922 4.755 20.922 4.755s-4.706 2.194-9.24 7.079c-3.891 4.191-5.581 9.785-5.581 9.785S8.056 12.403 10.526 9.593z"
    />
    <path
      d="M121.679 13.86s3.283 2.093 7.894 6.596c4.606 4.497 6.09 7.998 6.09 7.998 2.143-5.151 4.215-10.409 5.328-16.026.179-.903.761-3.203-.179-4.184-.511-.534-1.568-.517-2.114-.467-1.443.135-3.958.824-5.082 1.171-1.07.33-2.123.707-3.158 1.12-2.766 1.101-5.987 2.47-8.779 3.792z"
    />
  </g>
</svg>
