<svg
  viewBox="0 0 300 300"
  xmlns="http://www.w3.org/2000/svg"
  fill-rule="evenodd"
  clip-rule="evenodd"
  stroke-linecap="round"
  stroke-linejoin="round"
  stroke-miterlimit="1.5"
>
  <path
    d="M2643.23 787.452c-25.98-17.559-67.71-12.19-95.65-4.251-23.59 6.703-63.4 22.687-96.11 33.941-18.66 6.423-53.76 12.78-97.81-15.105-29.41-18.615-54.02-80.804-88.74-61.143-9.8 5.55-21.79 49.248 86.28 113.231 19.32 11.44 52.48 23.565 80.31 22.88 30.58-.753 67.44-14.835 103.15-27.399 19.46-6.847 67.31-22.702 74.17 12.857 5.62 29.091 27.29 33.087 41.85 26.987 34.6-14.49 28.85-54.06 26.85-62.017-3-11.898-14.51-26.604-34.3-39.981z"
    fill="#ebebeb"
    stroke="#31323d"
    stroke-width="12.69"
    transform="matrix(.17531 -.14277 .15562 .1911 -510.773 228.42)"
  />
</svg>
