<svg
  class="gato-body"
  viewBox="0 0 200 200"
  xmlns="http://www.w3.org/2000/svg"
  fill-rule="evenodd"
  clip-rule="evenodd"
  stroke-linecap="round"
  stroke-linejoin="round"
  stroke-miterlimit="1.5"
>
  <path
    d="M893.87 1464.18c9.488-185.42-107.732-371.49-201.061-371.34l-222.099-3.78c-114.849 72.43-166.708 250.56-158.555 375.12 6.32 96.57 35.843 136.67 86.39 182.7 38.839 35.38 93.391 48.35 201.818 46.6 120.987-1.95 148.214-10.22 194.674-36.63 50.143-28.51 93.798-94.27 98.833-192.67z"
    fill="#ebebeb"
    stroke="#31323d"
    stroke-width="17.03"
    transform="matrix(.2184 0 0 .11987 -50.664 -36.213)"
  />
  <path
    d="M625.135 962.022c44.728.239 54.316 2.909 108.059 19.549 11.098 3.436 84.543-35.803 89.807-20.426 3.259 9.52-33.1 90.065-29.306 99.485 18.186 45.19 27.713 80.22 32.401 106.88 20.137 114.51-44.54 186.29-215.814 188.17-154.761 1.7-245.575-55.3-221.335-192 5.098-28.75 11.289-49.5 26.53-92.06 6.293-17.58-37.086-104.531-26.291-113.499 9.906-8.229 92.641 35.13 104.02 28.696 35.468-20.053 85.107-25.044 131.929-24.795z"
    fill="#ebebeb"
    stroke="#31323d"
    stroke-width="9.38"
    transform="matrix(.3367 0 0 .3017 -128.147 -287.259)"
  />
  <path
    d="M10.53 9.593c2.47-2.811 20.922 4.755 20.922 4.755s-4.706 2.194-9.24 7.078c-3.891 4.192-5.581 9.786-5.581 9.786S8.06 12.403 10.53 9.592z"
    fill="#ccc"
  />
  <path
    d="M121.683 13.86s3.283 2.093 7.894 6.596c4.606 4.497 6.09 7.998 6.09 7.998 2.143-5.151 4.215-10.409 5.329-16.026.179-.903.76-3.203-.18-4.184-.511-.534-1.568-.517-2.113-.467-1.444.135-3.96.824-5.083 1.17-1.07.331-2.122.708-3.158 1.12-2.766 1.102-5.986 2.471-8.779 3.793z"
    fill="#ccc"
  />
</svg>
