<svg
  viewBox="0 0 300 300"
  xmlns="http://www.w3.org/2000/svg"
  fill-rule="evenodd"
  clip-rule="evenodd"
  stroke-linejoin="round"
  stroke-miterlimit="2"
>
  <path
    d="M1.5 1.5c1.001.69 14.71 2.422 29.684 5.025 16.464 2.859 34.46 6.77 38.783 11.501 5.386 5.89 1.207 11.01-.905 13.094-3.49 3.443-8.37 3.725-11.49 3.104-2.246-.446-5.21-1.35-5.192-4.928 0-.18.724-4.206 6.274-4.028C60.64 25.332-1.5 10.012 1.752 7.858"
    fill="#ebebeb"
  />
  <path
    d="M1.732.017l.2.046.191.07.096.054h.001l.015.006.026.01.033.01.04.011.048.015.055.015.057.016.142.039.16.037.179.041.198.045.216.045.234.048.25.05.268.05.282.053.299.055.313.056.328.058.343.06.357.06.37.062.384.063.807.133.858.138.905.144.95.15.996.156 2.112.326 2.26.351 1.18.182 1.212.189 1.24.195 1.267.2 1.29.205 1.314.211 1.334.216 1.352.22 1.367.228.69.115.693.115.695.118.698.12.7.121.704.12.775.137.777.135.779.138.78.14.78.143.782.143.781.145.782.145.781.147.78.15.78.15.778.152.776.155.774.154.771.157.769.158.765.16.762.16.758.163.754.164.75.165.744.167.739.17.734.169.728.172.72.173.36.087.356.087.355.088.353.089.352.088.35.09.347.089.345.089.344.09.342.091.34.09.337.092.336.091.333.091.33.093.33.092.326.094.324.094.322.093.32.095.317.094.314.094.312.095.309.098.307.094.304.098.301.096.3.097.295.1.293.097.29.098.287.1.285.099.281.1.279.1.275.101.272.101.27.102.266.102.263.101.26.105.256.102.254.104.25.105.246.105.244.106.24.107.236.105.233.108.23.108.226.107.222.11.22.109.214.111.212.11.208.113.205.111.2.113.198.115.193.116.19.115.185.117.182.118.179.12.174.118.17.122.165.12.084.064.08.061.08.064.08.063.077.063.077.063.076.065.075.062.074.067.073.064.071.066.07.066.07.066.07.068.067.068.066.07.066.067.064.069.138.154.134.153.13.152.128.152.123.153.12.152.118.152.113.153.11.155.108.152.103.154.1.152.098.155.094.151.091.153.088.155.084.154.081.153.078.153.075.154.072.152.07.153.064.155.064.151.059.154.056.153.054.152.05.154.048.15.045.15.042.153.039.151.036.15.033.151.03.15.028.151.025.148.022.148.019.15.017.147.014.146.011.148.01.145.006.145.004.144.002.144-.001.143-.003.14-.006.143-.008.142-.01.137-.012.14-.014.136-.016.138-.019.137-.02.135-.022.132-.024.134-.026.132-.028.13-.03.131-.03.13-.034.128-.034.127-.036.125-.037.125-.04.124-.04.123-.042.122-.044.12-.044.12-.045.118-.048.118-.048.115-.048.113-.05.116-.052.112-.052.11-.054.113-.054.11-.054.107-.056.107-.057.105-.057.105-.058.104-.059.103-.06.102-.059.1-.06.099-.061.097-.062.097-.062.097-.062.095-.063.092-.062.093-.064.092-.063.09-.065.09-.127.173-.128.17-.129.165-.128.16-.128.157-.128.15-.126.147-.125.142-.124.138-.122.132-.12.128-.117.124-.115.117-.112.114-.11.107-.092.09-.093.091-.095.089-.094.085-.096.086-.096.086-.097.083-.096.08-.097.082-.099.08-.098.078-.099.076-.099.076-.1.076-.1.074-.1.07-.102.072-.101.069-.102.068-.102.069-.103.066-.103.064-.103.064-.103.064-.104.061-.104.06-.104.059-.105.059-.105.057-.105.054-.105.055-.106.054-.105.053-.106.052-.106.05-.107.05-.106.047-.106.048-.107.045-.107.045-.107.045-.107.043-.107.041-.108.04-.107.041-.107.039-.108.038-.107.036-.107.036-.108.037-.107.033-.108.034-.107.032-.108.032-.107.03-.107.029-.108.03-.107.026-.107.028-.11.026-.211.049-.214.045-.213.042-.212.039-.212.037-.21.033-.211.028-.21.029-.208.022-.208.022-.206.016-.205.016-.204.012-.203.01-.202.007-.2.006-.198.002h-.198l-.196-.002-.193-.007-.193-.006-.19-.01-.189-.012-.187-.013-.185-.016-.183-.017-.18-.02-.18-.02-.176-.024-.175-.027-.172-.026-.17-.028-.168-.03-.164-.032-.228-.047-.23-.05-.12-.026-.121-.027-.122-.03-.122-.03-.124-.032-.125-.032-.125-.035-.126-.037-.128-.037-.128-.04-.128-.042-.13-.043-.13-.044-.129-.05-.13-.048-.131-.052-.13-.054-.13-.058-.132-.058-.13-.063-.13-.065-.13-.067-.13-.071-.13-.074-.128-.078-.127-.08-.127-.084-.125-.086-.124-.093-.12-.092-.065-.051-.06-.05-.06-.051-.06-.053-.059-.052-.058-.055-.058-.054-.058-.057-.057-.056-.056-.06-.056-.058-.056-.06-.054-.06-.053-.063-.053-.065-.052-.064-.053-.065-.05-.066-.049-.069-.05-.068-.047-.07-.047-.07-.046-.073-.045-.072-.045-.076-.042-.074-.042-.076-.041-.077-.04-.078-.04-.08-.037-.077-.036-.081-.036-.084-.034-.083-.033-.083-.031-.083-.03-.087-.03-.086-.028-.087-.027-.088-.025-.088-.024-.09-.023-.09-.022-.092-.02-.091-.019-.094-.017-.093-.016-.095-.016-.093-.013-.097-.012-.096-.011-.099-.01-.096-.008-.098-.007-.102-.005-.1-.005-.1-.003-.1-.001-.102v-.16l.011-.14.02-.126.021-.114.016-.073.016-.07.018-.071.02-.077.023-.08.026-.084.028-.089.031-.092.034-.094.037-.1.04-.099.044-.105.047-.107.05-.108.055-.112.058-.114.063-.117.066-.116.07-.12.076-.121.08-.123.085-.121.09-.125.091-.12.052-.066.05-.06.052-.062.053-.063.054-.06.056-.063.058-.062.058-.062.06-.06.061-.06.063-.062.064-.06.065-.059.068-.06.068-.06.07-.06.071-.056.072-.057.075-.059.002-.001-.643-.173-.904-.24-1.962-.524-4.462-1.184-2.452-.652-2.567-.685-1.319-.354-1.34-.359-1.355-.366-1.37-.37-1.382-.373-1.39-.38-1.394-.38-1.397-.382-1.395-.385-1.393-.385-1.385-.388-1.376-.386-1.364-.384-1.347-.384-.668-.19-.662-.191-.657-.19-.651-.187-.645-.189-.639-.187-.632-.186-.624-.184-.617-.183-.61-.184-.601-.18-.592-.18-.584-.178-.574-.176-.564-.174-.554-.175-.545-.17-.533-.17-.522-.168-.51-.165-.5-.164-.486-.16-.474-.16-.462-.156-.448-.155-.435-.152-.421-.15-.408-.146-.393-.146-.378-.14-.362-.14-.178-.067-.172-.07-.169-.068-.165-.065-.16-.067-.158-.066-.153-.065-.15-.064-.145-.064-.142-.062-.137-.065-.136-.06-.13-.064-.126-.061-.123-.062-.12-.062-.116-.062-.113-.061-.11-.061-.107-.063-.104-.063-.101-.066-.1-.065-.098-.072-.096-.071-.095-.078-.097-.083-.087-.083-.055-.056-.05-.055-.05-.055-.047-.059-.05-.066-.05-.073-.046-.075-.048-.086-.046-.092-.042-.1-.04-.11-.032-.118-.026-.126-.009-.072-.01-.136-.003-.077.003-.078.013-.134.002-.017.025-.134.004-.015.037-.131.025-.076.03-.072.06-.122.036-.069.075-.116.08-.105.08-.089.082-.082.084-.072.08-.062.047-.033.176-.107.187-.08.198-.056.202-.025h.205l.203.027.197.057.188.08.174.108.158.131.14.15.117.168.094.182.068.191.006.03.056.032.083.044.089.046.095.046.101.05.106.05.111.053.118.053.122.054.127.056.132.058.138.058.142.058.146.061.152.06.156.064.16.062.163.065.344.131.36.135.375.137.392.141.406.147.421.147.436.15.45.15.464.157.477.158.49.161.502.162.513.166.526.166.537.169.548.17.558.174.568.175.578.175.587.179.596.178.604.183.613.182.62.183.628.183.635.187.641.188.648.187.653.188.66.19.663.19 1.343.38 1.357.385 1.371.385 1.381.385 1.389.384 1.392.385 1.393.38 1.391.38 1.387.378 1.379.373 1.368.369 1.353.366 1.338.358 1.317.353 2.565.684 2.45.652 4.462 1.187 1.964.522.906.243.851.226.793.215.732.197.669.183.602.166.535.15.462.131.206.06.187.055.17.053.153.047.138.044.125.043.115.042.072.028.077.034.1.05.063.035.098.065.093.068.008.009.107.096.097.105.086.116.002.003.088.145.07.156.052.163v.002l.036.173.013.178-.007.178-.028.175-.048.17-.001.002-.078.183-.101.17-.123.156-.143.139-.002.001-.12.092-.13.081-.136.066-.003.002-.117.043-.12.033-.005.002-.105.02-.107.014-.015.002-.14.007-.039-.001-.138-.002-.11-.002h-.214l-.105.001-.102.004-.1.004-.099.007-.096.007-.095.007-.093.01-.091.008-.09.01-.087.014-.086.012-.084.014-.082.014-.081.017-.08.015-.077.018-.076.018-.075.018-.072.019-.07.019-.07.021-.069.022-.067.022-.064.02-.064.026-.063.023-.06.023-.06.026-.058.024-.058.026-.056.024-.054.027-.054.027-.052.027-.05.026-.05.03-.05.028-.047.028-.047.029-.045.028-.044.03-.044.029-.043.031-.042.03-.04.03-.04.03-.04.032-.037.03-.037.03-.037.033-.034.031-.035.031-.035.033-.032.032-.032.031-.032.034-.031.032-.03.032-.029.032-.029.034-.028.032-.027.033-.027.032-.022.027-.053.07-.048.066-.044.065-.042.063-.04.064-.037.064-.036.062-.032.06-.031.061-.028.057-.027.057-.024.056-.023.053-.02.052-.019.05-.016.046-.015.044-.013.04-.012.038-.01.034-.008.032-.006.023v.014l.002.063.003.058.003.062.004.054.005.06.005.054.006.055.007.051.008.053.008.051.008.051.01.049.01.047.01.047.01.044.011.048.013.042.012.046.013.04.013.041.013.04.015.04.015.04.015.04.015.037.015.036.017.035.018.037.017.035.017.035.017.033.02.033.019.035.018.03.02.032.02.03.02.032.022.031.02.03.023.03.023.03.022.027.023.03.024.026.024.03.025.028.024.027.026.028.026.025.027.028.027.026.027.026.029.026.028.026.029.026.03.024.03.026.028.022.066.051.065.047.068.048.069.045.071.046.074.043.075.044.077.043.08.04.08.04.083.04.084.039.087.036.087.038.089.034.09.034.091.034.093.033.094.03.094.031.095.03.097.027.097.03.098.026.098.027.099.025.099.025.1.022.099.023.097.022.202.044.197.04.13.025.133.025.136.021.137.022.14.02.141.02.145.016.146.017.148.014.15.011.151.013.154.01.155.007.157.005.158.004.16.003h.16l.162-.003.163-.002.164-.007.165-.008.166-.009.167-.013.167-.014.168-.017.169-.02.169-.02.169-.024.17-.028.17-.028.17-.032.17-.034.17-.037.174-.038.083-.021.085-.021.084-.023.086-.023.085-.023.084-.023.085-.025.085-.025.085-.027.084-.027.084-.026.085-.03.084-.03.084-.027.084-.032.084-.032.083-.03.084-.034.083-.032.083-.035.083-.034.082-.037.083-.037.083-.036.082-.037.081-.04.082-.039.081-.041.082-.042.08-.041.082-.044.08-.042.08-.046.08-.044.08-.047.079-.048.079-.047.079-.049.078-.048.078-.052.078-.05.078-.054.077-.054.077-.053.077-.054.076-.056.075-.056.076-.059.076-.058.075-.06.074-.06.074-.063.074-.06.073-.064.073-.065.073-.066.072-.066.072-.066.072-.07.071-.068.091-.091.095-.097.097-.1.098-.102.1-.107.102-.11.102-.113.103-.117.104-.12.104-.125.104-.126.104-.13.104-.134.103-.136.103-.14.049-.068.05-.073.05-.07.05-.073.048-.073.049-.075.048-.073.047-.075.047-.076.047-.077.046-.076.045-.078.045-.078.044-.079.043-.078.042-.079.042-.081.04-.08.04-.08.04-.082.038-.082.038-.084.036-.08.035-.084.035-.085.034-.083.033-.085.031-.085.03-.084.03-.085.028-.086.027-.087.026-.086.025-.087.024-.087.023-.09.02-.085.02-.087.02-.09.017-.089.016-.088.015-.091.014-.09.012-.089.01-.092.01-.09.008-.092.006-.09.005-.091.004-.094.002-.093v-.186l-.003-.093-.004-.095-.006-.095-.008-.096-.009-.093-.01-.099-.014-.094-.014-.1-.016-.097-.018-.098-.02-.098-.022-.1-.024-.1-.026-.102-.028-.1-.03-.102-.033-.103-.034-.103-.036-.104-.04-.107-.04-.105-.044-.105-.046-.108-.048-.108-.051-.107-.054-.11-.056-.11-.059-.113-.061-.111-.064-.112-.067-.114-.07-.113-.073-.116-.076-.114-.079-.117-.081-.118-.086-.116-.088-.119-.091-.12-.095-.12-.097-.12-.102-.122-.104-.123-.108-.123-.112-.123-.038-.042-.04-.042-.041-.042-.043-.042-.043-.043-.045-.043-.047-.043-.048-.045-.05-.044-.05-.044-.052-.045-.054-.046-.055-.045-.056-.046-.057-.045-.06-.046-.06-.046-.06-.045-.129-.097-.133-.092-.137-.095-.143-.097-.148-.095-.152-.097-.159-.095-.163-.096-.167-.097-.172-.098-.177-.097-.182-.098-.186-.097-.19-.097-.195-.098-.2-.098-.204-.097-.207-.1-.212-.096-.216-.099-.22-.097-.225-.097-.229-.096-.232-.098-.235-.097-.24-.097-.244-.095-.247-.097-.25-.097-.256-.095-.258-.095-.261-.097-.265-.095-.268-.095-.271-.096-.275-.095-.279-.093-.28-.096-.285-.092-.287-.095-.29-.093-.294-.094-.296-.092-.3-.093-.302-.091-.305-.092-.307-.093-.31-.092-.313-.09-.315-.091-.319-.09-.32-.09-.323-.092-.325-.09-.328-.089-.33-.088-.332-.088-.335-.09-.336-.089-.339-.087-.34-.088-.344-.087-.345-.086-.346-.087-.35-.088-.35-.085-.351-.086-.711-.169-.717-.17-.723-.166-.729-.168-.735-.164-.74-.164-.744-.162-.75-.16-.753-.16-.757-.158-.761-.156-.764-.155-.767-.154-.77-.151-.77-.152-.773-.15-.774-.148-.776-.146-.776-.144-.776-.144-.776-.141-.776-.142-.775-.14-.774-.136-.772-.136-.77-.134-.7-.122-.697-.118-.694-.12-.693-.116-.689-.117-.686-.114-1.362-.227-1.347-.219-1.329-.215-1.309-.21-1.287-.205-1.264-.2-1.237-.193-1.21-.188-1.179-.185-2.26-.348-2.114-.33-.997-.155-.956-.15-.91-.144-.864-.14-.816-.134-.39-.064-.376-.065-.364-.06-.35-.062-.337-.058-.323-.057-.31-.057-.295-.057L3.3 3.52l-.268-.053-.253-.052-.24-.05-.225-.05-.213-.048-.198-.05-.183-.047-.093-.025-.086-.025-.085-.024-.084-.026-.081-.028-.08-.028-.083-.03-.084-.035-.087-.038-.093-.046-.102-.057-.066-.04-.165-.122-.147-.142-.126-.16-.103-.179-.078-.188-.052-.2-.024-.201.003-.206.032-.201L.096.97.18.785l.11-.172.132-.157.152-.139.17-.113.183-.092.194-.065.201-.037.204-.01.205.017zm.882 9.069l.011-.009.045-.033.044-.038-.1.08zM2.303.23L2.289.224 2.247.2 2.224.188H2.22l.083.043z"
    fill="#31323d"
  />
</svg>
