<svg
  
  xmlns="http://www.w3.org/2000/svg"
  fill-rule="evenodd"
  clip-rule="evenodd"
  stroke-linecap="round"
  stroke-linejoin="round"
  stroke-miterlimit="1.5"
>
  <path
    d="M524.506 1234.32s29.039 153.1 30.542 188.33c.606 14.2-23.68 66.23 2.773 81 22.698 12.68 91.054-14.31 148.156-68.14 12.259-11.55 12.922-33.63 12.922-48.26l11.294-109.19"
    fill="#ebebeb"
    stroke="#31323d"
    stroke-width="17.13"
    transform="matrix(.15408 .0492 -.05707 .17872 2.23 -244.898)"
  />
  <path
    d="M526.522 1202.08l3.37 185.17c0 14.63 29.5 23.19 47.252 26.51 23.626 4.42 94.503 0 94.503 0 42.427-12.35 9.057-25.13 9.057-39.76l38.195-168.76"
    fill="#ebebeb"
    stroke="#31323d"
    stroke-width="17.6"
    transform="matrix(.18368 0 0 .1561 -19.15 -177.446)"
  />
</svg>
