<svg
  
  xmlns="http://www.w3.org/2000/svg"
  fill-rule="evenodd"
  clip-rule="evenodd"
  stroke-linecap="round"
  stroke-linejoin="round"
  stroke-miterlimit="1.5"
>
  <path
    d="M529.892 1205.24s15.357 134.24 16.86 169.47c.606 14.19-34.294 27.13-7.841 41.9 22.698 12.67 109.11 1.57 132.736-2.85 17.752-3.32 47.252-11.88 47.252-26.51l5.39-181.44"
    fill="#ebebeb"
    stroke="#31323d"
    stroke-width="18.64"
    transform="matrix(.16569 0 0 .1561 -86.15 -183.714)"
  />
  <path
    d="M526.522 1202.08l52.167 176.56c0 14.63 21.635 81.39 60.622 105.25 21.223 12.99 54.993 11.38 64.846-6.35 17.972-32.34-5.7-64.47-4.476-104.17l-3.249-188.62"
    fill="#ebebeb"
    stroke="#31323d"
    stroke-width="17.6"
    transform="matrix(.1832 -.01331 .01131 .1557 -48.92 -173.693)"
  />
</svg>
