<svg
  
  xmlns="http://www.w3.org/2000/svg"
  fill-rule="evenodd"
  clip-rule="evenodd"
  stroke-linejoin="round"
  stroke-miterlimit="2"
>
  <path
    d="M108.567 9.335l.927.037 2.623.13c2.26.13 5.471.372 9.292.856 4.354.535 8.673 1.26 12.932 2.175 2.329.502 4.726 1.078 7.145 1.748 2.419.67 4.815 1.413 7.167 2.25a89.463 89.463 0 0 1 6.895 2.77 72.218 72.218 0 0 1 6.308 3.235 58.152 58.152 0 0 1 5.426 3.57 46.146 46.146 0 0 1 4.341 3.663 39.245 39.245 0 0 1 3.188 3.421l.61.781.566.744.497.688.43.632c.271.39.497.762.7 1.079.204.316.362.595.498.818l.384.688-.407-.67c-.135-.223-.293-.483-.52-.8-.226-.315-.452-.669-.723-1.06l-.452-.631-.52-.67-.588-.725-.633-.762a39.873 39.873 0 0 0-3.278-3.328 46.476 46.476 0 0 0-4.432-3.533 58.686 58.686 0 0 0-5.471-3.403 71.68 71.68 0 0 0-6.33-3.049c-2.216-.948-4.545-1.804-6.896-2.584-2.352-.781-4.77-1.45-7.145-2.064-2.374-.614-4.77-1.116-7.099-1.562-4.23-.802-8.51-1.415-12.82-1.84-3.775-.373-6.94-.559-9.156-.633l-2.555-.074h-.926c-.615-.006-1.12-.424-1.12-.93 0-.51.511-.93 1.13-.93h.035l-.023-.037z"
    fill="#31323d"
    fill-rule="nonzero"
  />
  <path
    d="M146.527 6.676l-.339-.204-.972-.54-1.537-.78a30.859 30.859 0 0 0-2.08-.912l-1.221-.464-.656-.242-.678-.223-.701-.223-.723-.205-.747-.204-.768-.186c-.52-.13-1.04-.223-1.583-.335-.542-.112-1.085-.186-1.628-.279-.542-.093-1.108-.13-1.673-.204-.565-.075-1.13-.093-1.695-.13-.566-.038-1.13-.038-1.696-.056h-1.696l-.836.037-.814.056c-.543.055-1.085.093-1.583.167-1.04.13-2.035.316-2.984.502-.95.186-1.809.409-2.6.65l-1.13.335-.995.335-1.606.614-.994.427-.34.168h-.022a1.337 1.337 0 0 1-.543.113c-.622 0-1.133-.42-1.133-.931 0-.34.227-.655.59-.819h.068l.385-.148 1.108-.41 1.74-.557 1.086-.316 1.22-.298a40.86 40.86 0 0 1 2.804-.539 27.98 27.98 0 0 1 3.165-.353c.543-.056 1.108-.056 1.673-.093h2.578l.882.056c.587.037 1.175.055 1.74.148.566.093 1.176.112 1.741.223.566.112 1.153.168 1.696.298.543.13 1.108.223 1.65.372.543.149 1.063.26 1.583.427l.769.224.746.241.723.242 1.357.52.633.26 1.198.54c.746.353 1.425.707 2.012 1.023.588.316 1.086.613 1.493.874l.927.595.406.204z"
    fill="#31323d"
    fill-rule="nonzero"
  />
  <path
    d="M110.353 14.132l1.764.13.972.13 1.153.168c.791.167 1.696.316 2.645.576l.724.186.746.242.768.242.77.278.79.298c.272.093.52.223.792.335l.791.353.791.39.792.41.768.446.77.464 1.152.726.362.26.746.52c.497.354.95.726 1.424 1.098.927.762 1.832 1.524 2.646 2.324.814.8 1.605 1.599 2.328 2.398.724.8 1.38 1.6 1.99 2.362.61.762 1.13 1.506 1.628 2.194.497.688.904 1.338 1.243 1.896.34.558.656 1.079.905 1.506.474.837.7 1.339.7 1.339s-.27-.483-.79-1.302c-.272-.409-.589-.892-.996-1.45a74.605 74.605 0 0 0-1.379-1.84 36.827 36.827 0 0 0-1.763-2.102 77.67 77.67 0 0 0-2.103-2.25 35.364 35.364 0 0 0-2.442-2.25 57.309 57.309 0 0 0-2.735-2.156l-1.47-.986-.746-.464-.384-.224-.385-.223-.768-.427-.77-.41-.768-.39-.768-.353-.77-.335-.768-.297c-.249-.093-.497-.205-.769-.28l-.746-.24-.746-.243-.723-.204-.701-.186-.678-.149c-.882-.204-1.741-.316-2.465-.427l-1.017-.093-.86-.075-1.763-.056c-.603-.02-1.085-.433-1.085-.93 0-.509.51-.929 1.13-.929h.113-.045z"
    fill="#31323d"
    fill-rule="nonzero"
  />
  <g>
    <path
      d="M73.166 9.59h-3.573c-2.26 0-5.494 0-9.337.116-1.922.058-4.024.135-6.217.27-2.194.135-4.522.308-6.919.54-2.396.232-4.86.54-7.348.926-2.487.386-4.996.85-7.483 1.409a85.613 85.613 0 0 0-7.303 1.987 65.19 65.19 0 0 0-3.482 1.216 53.59 53.59 0 0 0-3.3 1.37c-3.912 1.727-7.507 3.93-10.672 6.54a34.181 34.181 0 0 0-3.504 3.358c-.25.251-.453.521-.679.772l-.61.733-.543.695-.474.656c-.294.405-.543.79-.77 1.119l-.293.463-.226.386-.43.714.407-.714.226-.386.272-.463c.203-.328.43-.714.723-1.138l.452-.657.52-.713c.181-.251.385-.502.588-.753.204-.25.407-.54.656-.791a33.96 33.96 0 0 1 3.414-3.473c3.117-2.717 6.68-5.03 10.58-6.87a54.076 54.076 0 0 1 3.302-1.466 59.11 59.11 0 0 1 3.481-1.312 86.165 86.165 0 0 1 7.326-2.18c2.487-.637 5.019-1.158 7.528-1.62 2.51-.464 4.997-.811 7.416-1.12 2.42-.309 4.748-.521 6.986-.714 2.239-.193 4.341-.309 6.286-.405 3.888-.193 7.144-.27 9.405-.328l3.55-.077h.033c.62 0 1.13.436 1.13.964 0 .52-.488.95-1.096.965h-.022v-.02z"
      fill="#31323d"
      fill-rule="nonzero"
    />
    <path
      d="M33.6 6.58l.34-.232.971-.656.724-.444.407-.25.452-.251c.61-.367 1.334-.733 2.148-1.12l1.266-.578 1.38-.58a39.16 39.16 0 0 1 3.097-1.041l.836-.232.86-.212.858-.212.882-.174.904-.173.905-.135.927-.116.927-.097.475-.038h.474L53.338 0h1.854l1.83.058 1.787.135c.588.077 1.153.116 1.718.212l.837.116.791.154c1.063.193 2.035.425 2.94.657.904.231 1.718.501 2.418.733l.995.347.837.328 1.153.482.407.174c.375.166.612.498.612.859 0 .53-.51.966-1.132.966-.181 0-.36-.036-.52-.108h-.068l-.362-.193-1.04-.501-.769-.348-.904-.385a30.6 30.6 0 0 0-2.238-.81c-.837-.271-1.741-.541-2.736-.773l-.746-.173-.769-.155c-.52-.115-1.062-.193-1.605-.29l-1.696-.211-1.74-.135-.882-.039h-2.69l-.905.039-.904.077-.882.077-.882.116-.882.115-.859.155-.836.154-.837.193a39.99 39.99 0 0 0-3.097.868l-1.402.502-1.289.521c-.814.347-1.56.675-2.193 1.003l-.475.232-.43.231-.745.406-1.018.598-.384.193z"
      fill="#31323d"
      fill-rule="nonzero"
    />
    <path
      d="M71.461 16.682l-1.763-.058-.86.039h-.745l-.272.038-1.175.135-1.289.232-.34.058-.338.077-.701.174c-.498.096-.972.27-1.47.424-.497.154-.995.367-1.515.56l-.384.154-.384.174-.769.347-.769.386-.768.405-1.515.888c-1.02.638-2.001 1.321-2.94 2.045l-.7.56-.678.578c-.453.367-.882.772-1.334 1.158l-1.244 1.196c-.384.406-.791.791-1.176 1.197l-.565.598-.542.598c-.362.386-.679.791-.995 1.177l-.927 1.138-.814 1.081c-.52.695-.972 1.35-1.38 1.93-.406.578-.723 1.1-.994 1.524-.543.849-.814 1.35-.814 1.35s.249-.52.724-1.389a52.6 52.6 0 0 1 .904-1.563c.362-.598.769-1.273 1.266-1.987l.769-1.12.859-1.176c.294-.405.61-.81.927-1.235l.497-.637.52-.637c.34-.424.724-.849 1.108-1.273l1.198-1.274c.43-.405.837-.849 1.266-1.254l.656-.617.678-.598a36.249 36.249 0 0 1 2.894-2.258l1.538-1.003.791-.463c.271-.155.52-.31.791-.444l.792-.405.384-.193.407-.174c.543-.231 1.04-.482 1.583-.675.542-.193 1.04-.405 1.56-.54l.768-.232.362-.116.362-.077 1.402-.309 1.288-.193.294-.038h.294l.565-.039 1.018-.077h1.797c.62 0 1.13.436 1.13.965 0 .525-.504.959-1.119.964h-.067l-.046-.096z"
      fill="#31323d"
      fill-rule="nonzero"
    />
  </g>
</svg>
