<svg
  viewBox="0 0 180 180"
  xmlns="http://www.w3.org/2000/svg"
  fill-rule="evenodd"
  clip-rule="evenodd"
  stroke-linejoin="round"
  stroke-miterlimit="2"
>
  <path
    d="M.303 16.252c.036.092.068.321.127.46.056.13.101.262.232.38.143.125.432.284.618.373.142.067.33.125.504.164.167.038.357.055.542.074.193.02.407.059.613.049.253-.012.654-.04.909-.121.285-.09.57-.265.796-.416.237-.16.47-.373.628-.54l.453-.497c.135-.176.27-.351.43-.527.157-.175.27-.37.384-.556.113-.185.27-.38.361-.576l.34-.585.293-.595c.113-.195.181-.4.272-.595.09-.195.158-.4.248-.596l.204-.585.09-.293.068-.283c.09-.38.204-.741.271-1.092.068-.352.136-.683.181-.986l.113-.83.045-.643.046-.556v-.02c.03-.392.786-.707 1.695-.707.932 0 1.696.33 1.696.732v.024c0 .02 0 .04-.023.068l-.158.576-.18.654-.295.849c-.09.312-.248.644-.384 1.005-.136.36-.317.731-.497 1.112l-.136.292-.158.293-.317.595c-.113.205-.249.4-.362.605a4.13 4.13 0 0 1-.407.605l-.43.605-.474.595c-.158.195-.339.39-.497.576a8.34 8.34 0 0 1-.52.556l-.543.537-.565.497c-.181.166-.407.313-.588.469 0 0-.206.119-.3.182-.148.1-.349.293-.59.418-.274.141-.43.273-1.054.431-.274.068-1.382-.038-1.77-.081-.224-.024-.392-.106-.564-.173-.266-.104-.782-.272-1.04-.452-.255-.18-.402-.482-.497-.628-.052-.078-.063-.162-.08-.243-.017-.094-.056-.213-.028-.32.031-.114.16-.32.21-.368.031-.029.074.057.088.088z"
    fill="#31323d"
    fill-rule="nonzero"
  />
  <path
    d="M21.081 16.376c-.036.092-.067.32-.126.46-.057.13-.102.262-.233.379-.142.126-.432.285-.617.374-.143.067-.33.125-.504.164-.168.038-.358.054-.543.074-.192.02-.407.058-.613.049-.253-.012-.653-.04-.909-.121-.284-.09-.57-.265-.795-.416a4.085 4.085 0 0 1-.629-.54l-.452-.497c-.136-.176-.271-.352-.43-.527-.158-.176-.271-.37-.384-.556-.113-.186-.271-.38-.362-.576l-.339-.585-.294-.596c-.113-.195-.18-.4-.271-.595-.09-.195-.158-.4-.249-.595l-.203-.585-.09-.293-.069-.283c-.09-.38-.203-.741-.27-1.093-.069-.35-.137-.683-.182-.985l-.113-.83-.045-.643-.045-.557v-.02c-.03-.391-.787-.706-1.696-.706-.931 0-1.696.33-1.696.731v.025c0 .02 0 .039.023.068l.158.576.181.653.294.85c.09.311.249.643.384 1.004.136.361.317.732.498 1.112l.135.293.159.293.316.595c.113.205.249.4.362.605.113.205.249.41.407.605l.43.605.474.595c.159.195.34.39.498.576.158.185.339.38.52.556l.542.536.566.498c.18.166.406.312.587.468 0 0 .206.12.301.183.147.1.348.292.59.417.274.142.43.274 1.054.432.273.068 1.381-.038 1.77-.081.224-.025.391-.107.563-.173.267-.104.782-.272 1.04-.453.255-.18.402-.482.497-.627.052-.078.064-.162.08-.243.018-.095.056-.214.029-.32a1.218 1.218 0 0 0-.21-.368c-.032-.03-.075.057-.089.088z"
    fill="#31323d"
    fill-rule="nonzero"
  />
  <g>
    <path
      d="M3.82 4.826c-1.776-.35.392-4.834 6.903-4.825 6.091.007 9.177 4.692 7.382 4.72-2.26.03-1.587.913-3.577 2.237-.126.084-1.275 1.266-3.65 1.4-1.715.098-3.37-.777-4.13-1.188-.759-.41-.947-1.954-2.927-2.344z"
      fill="#31323d"
      fill-rule="nonzero"
    />
  </g>
</svg>
