<svg
  
  xmlns="http://www.w3.org/2000/svg"
  fill-rule="evenodd"
  clip-rule="evenodd"
  stroke-linejoin="round"
  stroke-miterlimit="2"
>
  <path
    d="M10.497 8.084l.158.52c.045.158.113.37.181.592l.271.752.34.89c.135.317.27.645.429.984l.249.519.271.53.294.54.316.54.34.54c.113.18.226.36.361.529l.385.519.407.498c.135.169.27.317.407.476.135.159.27.307.407.455l.407.424.406.392c.25.254.543.476.77.677l.632.509.588.434a.1.1 0 0 1 .03.064c0 .087-.154.16-.34.16a.603.603 0 0 1-.233-.044l-.7-.413-.77-.487c-.27-.19-.61-.413-.926-.657l-.52-.381-.52-.413c-.181-.138-.34-.296-.52-.445a7.077 7.077 0 0 1-.52-.466l-.52-.497-.498-.509c-.18-.169-.339-.349-.497-.518-.158-.17-.339-.35-.475-.53l-.452-.54-.43-.54-.203-.265-.203-.264-.385-.52c-.226-.338-.475-.677-.678-.995l-.565-.9-.452-.762c-.136-.233-.227-.424-.317-.582l-.271-.509a.417.417 0 0 1-.052-.196c0-.437.768-.797 1.702-.797.778 0 1.46.249 1.65.602l.046.084z"
    fill="#31323d"
    fill-rule="nonzero"
  />
  <path
    d="M.074 20.42l.204-.127.565-.37.362-.265c.135-.095.294-.201.43-.318l.451-.37c.159-.127.294-.276.453-.424l.248-.222.226-.244c.159-.159.317-.328.475-.508l.452-.54c.136-.19.272-.381.43-.572.158-.19.271-.402.384-.603.113-.202.272-.413.362-.625l.34-.636.293-.645c.113-.212.18-.435.271-.646.09-.212.159-.435.249-.646l.203-.636.09-.317.069-.307c.09-.413.203-.805.271-1.186.068-.382.136-.742.18-1.07l.114-.9.045-.699.045-.603v-.022c.03-.425.787-.767 1.696-.767.932 0 1.696.358 1.696.794v.026c0 .022 0 .043-.023.075l-.158.624-.181.71-.294.921c-.09.339-.249.699-.384 1.09-.136.392-.317.795-.498 1.208l-.135.317-.159.318-.316.646c-.113.222-.249.434-.362.657a4.526 4.526 0 0 1-.407.656l-.43.657-.474.645c-.158.212-.34.424-.498.625-.158.201-.339.413-.52.604l-.542.582-.565.54c-.181.18-.407.34-.588.508l-.272.244-.293.222c-.204.149-.362.286-.566.413l-.542.36c-.159.117-.34.223-.498.318l-.43.265-.632.339-.226.116a.6.6 0 0 1-.306.072c-.208 0-.38-.08-.38-.178 0-.038.028-.075.075-.106z"
    fill="#31323d"
    fill-rule="nonzero"
  />
  <path
    d="M2.037 4.825C.26 4.475 2.427-.009 8.939 0c6.09.007 9.177 4.692 7.382 4.72-2.261.03-1.587.913-3.577 2.237-.126.084-1.275 1.266-3.651 1.4-1.714.098-3.369-.777-4.129-1.188-.76-.41-.947-1.954-2.927-2.344z"
    fill="#31323d"
    fill-rule="nonzero"
  />
</svg>
