<svg
  width="63"
  height="47"
  xmlns="http://www.w3.org/2000/svg"
  fill-rule="evenodd"
  clip-rule="evenodd"
  stroke-linecap="round"
  stroke-linejoin="round"
  stroke-miterlimit="1.5"
>
  <path
    d="M31.77 1.5c6.128 0 12.924 2.471 17.113 6.075 6.621 5.696 7.812 13.756 9.606 22.58.328 1.616 2.512 3.97 2.51 5.304-.005 4.717-5.21 4.405-13.564 7.89-4.087 1.705-12.55 2.089-17.677 2.13-5.983.049-13.305-1.094-17.589-3.463-6.811-3.767-10.802-2.734-10.666-7.434.04-1.375 2.793-4.048 2.873-5.46.499-8.875 3.714-16.083 10.847-22.035C19.373 3.624 26.018 1.5 31.77 1.5z"
    fill="#c96"
    stroke="#633"
    stroke-width="3"
  />
  <path
    d="M30.32.784l.111.012.111.018.109.024.108.03.107.037.104.042.101.048.099.053.095.059.092.064.088.07.084.074.08.079.076.083.07.087.066.091.06.095.055.097.05.101.043.103.038.106.032.108.026.109.019.11.014.112.007.112.001.112-.006.112-.025.329-.027.33-.029.324-.028.319-.057.621-.055.604-.026.294-.024.291-.023.286-.02.283-.018.278-.015.279-.006.133-.006.136-.005.136-.004.134-.003.134-.002.133-.001.133v.132l.001.132.001.132.003.13.004.13.005.131.006.13.008.13.008.13.01.129.011.13.013.129.014.13.015.129.017.13.018.131.019.13.021.131.023.132.024.131.026.132.028.134.029.133.031.133.033.136.035.135.037.137.039.138.041.14.039.126.04.13.042.129.042.129.089.268.091.271.094.277.093.284.048.149.046.149.046.152.045.153.045.158.043.16.041.164.04.166.037.17.035.172.033.176.029.18.026.176.012.098.011.093.01.094.009.095.008.096.007.096.006.096.005.098.003.099.003.099.001.1v.101l-.001.101-.003.097-.004.117-.008.211-.007.139-.009.15-.011.161-.013.169-.015.169-.01.094-.011.091-.012.09-.013.095-.016.1-.019.101-.024.112-.032.127-.045.149-.06.161-.06.13-.07.132-.048.076-.056.083-.059.08-.007.009-.054.066-.057.064-.059.061-.008.007-.082.077-.086.071-.089.067-.008.005-.09.06-.094.055-.096.049-.099.044-.008.004-.095.036-.097.032-.099.027-.1.022-.1.017-.008.001-.112.012-.112.006h-.112l-.112-.007-.111-.012-.111-.019-.109-.025-.108-.032-.106-.037-.103-.043-.101-.049-.099-.054-.094-.06-.092-.065-.087-.071-.084-.074-.079-.08-.075-.084-.069-.088-.065-.091-.06-.095-.054-.099-.048-.101-.043-.103-.037-.106-.031-.108-.024-.11-.019-.11-.012-.112-.006-.112v-.112l.006-.112.013-.111.019-.111.025-.109.032-.108.037-.106.031-.076.002-.014.01-.115.01-.118.008-.121.006-.117.006-.107.007-.178.003-.083.001-.056.001-.052v-.051l-.001-.05-.001-.051-.002-.051-.002-.049-.003-.052-.004-.049-.004-.051-.005-.05-.005-.049-.006-.05-.006-.045-.015-.107-.017-.101-.019-.103-.021-.104-.023-.105-.025-.107-.028-.109-.03-.11-.031-.112-.034-.116-.036-.117-.037-.12-.039-.12-.084-.256-.089-.264-.092-.275-.096-.286-.049-.151-.049-.152-.049-.156-.049-.16-.053-.182-.052-.183-.049-.181-.046-.181-.044-.18-.042-.18-.039-.179-.037-.177-.034-.177-.033-.176-.03-.175-.028-.175-.026-.174-.024-.173-.022-.172-.021-.172-.018-.171-.016-.17-.015-.169-.012-.168-.012-.168-.009-.166-.008-.167-.007-.165-.005-.165-.003-.165-.002-.162-.001-.163v-.162l.002-.162.002-.16.004-.16.005-.16.005-.159.007-.158.007-.161.017-.312.02-.313.022-.311.025-.31.026-.309.027-.308.055-.614.057-.617.028-.309.027-.31.025-.311.025-.318.012-.112.018-.111.024-.109.03-.108.036-.106.043-.104.047-.102.054-.098.059-.096.064-.092.07-.088.074-.084.078-.08.084-.075.087-.071.091-.066.094-.06.098-.055.101-.049.103-.044.106-.038.107-.032.11-.025.11-.02.111-.013.112-.008h.113l.112.005zm-.375 16.232l-.003.004.01-.008-.007.004zm.309-.216l-.076.054.016-.011.098-.054.078-.037-.116.048zm.43-.179l-.17.071.089-.031.108-.031.109-.024.111-.019-.247.034zM16.847 5.372l.071.003.072.005.071.008.07.01.071.013.069.015.07.018.068.02.068.022.067.025.066.028.065.029.063.032.063.035.061.036.06.039.059.04.057.043.056.045.054.047.052.048.05.051.049.052.047.054.045.056.042.057.041.059.039.06.036.061.034.063.032.064.03.065.027.066.025.066.023.068.02.069.017.069.015.07.013.07.01.071.008.071.005.071.002.071v.072l-.002.071-.005.071-.008.071-.01.071-.013.07-.015.07-.014.059-.01.045-.01.048-.009.051-.009.052-.009.054-.008.056-.007.056-.007.058-.005.057-.005.057-.004.057-.003.057-.001.056-.001.056v.053l.001.052.002.05.003.048.004.044.005.042.005.038.005.033.006.031.005.025.005.02.004.015.003.009.007.012.018.031.02.033.018.031.049.077.052.079.058.084.062.087.067.093.071.096.158.21.167.222.089.12.091.123.092.128.094.134.094.139.095.144.092.146.049.082.047.08.047.082.045.082.045.085.045.088.044.088.043.091.042.093.04.094.04.098.038.1.036.1.035.104.033.106.031.108.028.109.026.112.024.114.021.115.018.118.015.12.012.12.008.123.006.123.001.094v.072l-.003.071-.005.071-.008.071-.01.071-.013.07-.016.07-.017.069-.021.068-.022.068-.025.067-.028.066-.03.065-.032.063-.034.063-.037.061-.039.06-.04.059-.043.057-.045.055-.047.054-.049.052-.051.051-.052.048-.054.047-.056.044-.057.043-.059.041-.06.038-.061.036-.063.034-.064.032-.065.03-.066.027-.067.025-.068.022-.068.02-.07.017-.069.015-.071.013-.07.01-.071.007-.072.005-.071.003-.071-.001-.072-.002-.071-.006-.071-.007-.071-.011-.07-.013-.07-.015-.069-.018-.068-.02-.068-.023-.067-.025-.066-.027-.064-.03-.064-.032-.063-.035-.061-.036-.06-.039-.059-.041-.057-.043-.055-.045-.054-.047-.052-.048-.05-.051-.049-.052-.047-.054-.044-.056-.043-.057-.04-.059-.039-.06-.036-.062-.034-.063-.032-.064-.03-.065-.027-.066-.024-.067-.023-.067-.02-.069-.017-.069-.015-.07-.013-.07-.01-.071-.007-.071-.005-.071-.003-.071v-.042l-.001-.011v-.01l-.002-.012-.001-.012-.002-.011-.002-.014-.003-.015-.004-.015-.004-.017-.005-.018-.006-.018-.007-.02-.008-.023-.009-.023-.009-.023-.012-.026-.011-.027-.014-.029-.015-.03-.015-.03-.018-.032-.018-.035-.02-.034-.021-.036-.02-.032-.051-.083-.054-.082-.058-.085-.063-.09-.068-.094-.072-.097-.074-.101-.163-.215-.169-.226-.09-.122-.091-.124-.092-.131-.093-.135-.093-.14-.09-.142-.049-.081-.046-.077-.045-.08-.047-.084-.039-.072-.038-.076-.036-.076-.033-.075-.032-.076-.03-.075-.028-.075-.029-.083-.044-.137-.042-.145-.035-.144-.031-.141-.026-.14-.022-.139-.018-.137-.015-.135-.011-.133-.008-.133-.006-.13-.003-.129v-.128l.002-.126.004-.125.006-.123.008-.122.01-.121.011-.119.013-.117.015-.116.016-.114.018-.112.019-.111.021-.109.022-.108.024-.107.02-.088.018-.069.02-.068.023-.068.025-.067.027-.066.03-.065.032-.064.034-.062.037-.062.038-.06.041-.058.043-.057.045-.056.046-.054.049-.052.05-.051.053-.048.054-.047.055-.045.058-.043.058-.04.06-.039.062-.036.062-.034.064-.032.065-.03.066-.027.067-.025.068-.023.068-.02.069-.017.07-.016.071-.012.07-.01.071-.008.071-.005.072-.003h.071zM43.739 3.31l.077.005.076.008.076.01.075.014.075.017.074.019.074.022.072.025.071.028.071.03.069.033.068.036.066.039.065.04.063.044.061.045.06.048.058.051.056.052.054.055.051.056.05.059.047.06.045.062.043.064.039.065.038.067.035.068.032.07.03.07.026.072.024.073.022.074.018.074.016.075.012.076.01.076.007.076.004.076.001.077-.002.077-.005.076-.008.076-.011.076-.013.075-.017.075-.019.074-.022.074-.025.072-.028.072-.031.07-.033.069-.035.068-.039.066-.041.065-.064.098-.056.088-.055.088-.053.088-.052.088-.052.09-.05.089-.048.089-.047.09-.046.09-.045.09-.043.09-.043.092-.041.091-.04.091-.039.091-.038.092-.037.093-.036.093-.035.093-.034.094-.033.094-.032.095-.03.095-.03.095-.029.096-.028.096-.027.096-.026.098-.025.098-.025.098-.023.099-.023.099-.021.1-.021.1-.02.101-.019.102-.018.101-.018.102-.016.104-.016.103-.015.104-.015.105-.013.105-.013.105-.012.107-.011.107-.01.107-.01.109-.009.108-.009.109-.007.11-.007.11-.007.11-.005.112-.005.11-.009.227-.005.228-.004.23-.001.241-.002.076-.005.077-.007.076-.011.076-.013.075-.017.075-.019.074-.022.074-.025.072-.028.072-.03.07-.033.069-.036.068-.038.066-.04.065-.044.064-.045.061-.048.06-.05.058-.053.056-.054.054-.057.052-.058.049-.06.048-.062.045-.064.042-.065.04-.067.038-.068.035-.07.032-.07.03-.072.027-.073.024-.073.021-.075.019-.075.015-.075.013-.076.01-.076.007-.077.004-.077.001-.076-.002-.077-.005-.076-.007-.076-.011-.075-.013-.075-.017-.074-.019-.074-.022-.072-.025-.072-.028-.07-.03-.069-.033-.068-.036-.066-.038-.065-.041-.063-.043-.062-.045-.06-.048-.058-.05-.056-.053-.054-.054-.051-.057-.05-.058-.047-.06-.045-.062-.043-.064-.04-.065-.038-.067-.035-.068-.032-.07-.03-.07-.026-.072-.025-.073-.021-.073-.018-.075-.016-.075-.013-.075-.01-.076-.007-.077-.004-.076-.001-.077.001-.26.004-.271.007-.27.01-.269.006-.138.007-.135.008-.136.008-.136.01-.136.01-.136.012-.136.012-.135.013-.137.015-.136.015-.136.016-.136.018-.137.019-.136.019-.137.021-.136.022-.136.023-.137.025-.137.026-.135.027-.137.028-.136.029-.136.031-.137.033-.136.033-.137.035-.135.037-.136.038-.137.039-.136.041-.135.043-.136.044-.136.045-.135.048-.135.048-.135.051-.135.052-.135.053-.134.056-.134.057-.134.059-.135.06-.133.062-.132.064-.133.066-.133.068-.131.069-.132.072-.132.073-.131.074-.13.077-.13.079-.131.08-.128.082-.129.078-.119.043-.063.046-.062.048-.059.05-.058.053-.056.054-.054.057-.052.058-.049.061-.047.062-.045.064-.043.065-.04.067-.037.068-.035.069-.032.071-.03.072-.027.073-.024.073-.021.075-.018.075-.016.075-.012.076-.01.077-.007.076-.004.077-.001.076.002zM13.346 17.359l.103.005.102.011.102.016.1.022.1.026.098.032.096.037.094.041.092.047.09.051.086.055.084.06.081.065.077.068.073.072.07.076.066.079.061.083.057.086.053.088.048.091.043.094.039.095.033.097.029.099.023.101.018.101.013.102.008.103.002.103-.001.21-.002.215-.004.212-.004.21-.011.405-.01.397-.005.192-.004.19-.003.187-.002.183v.18l.001.177.003.174.005.171.007.167.009.17.005.078.006.08.007.079.007.08.008.079.009.077.009.078.01.076.011.076.012.075.012.075.013.074.014.075.014.072.016.072.016.073.017.072.019.071.018.071.02.07.021.071.022.07.023.07.024.07.024.068.026.07.028.07.028.07.043.101.045.101.045.1.046.098.047.098.048.096.049.097.05.095.051.095.051.094.053.094.053.095.054.093.054.091.114.192.116.189.118.191.245.391.126.201.126.206.126.208.065.111.064.109.064.112.064.113.063.115.063.118.062.119.062.121.06.124.06.125.059.129.058.13.056.133.055.135.054.138.051.14.049.142.048.146.046.148.043.149.041.152.038.155.036.157.033.16.03.161.027.165.024.166.021.168.018.171.015.172.012.175.008.177.005.179.002.163-.002.103-.007.103-.012.102-.018.102-.023.1-.027.099-.033.098-.038.096-.043.093-.048.092-.052.088-.057.086-.061.083-.065.08-.069.076-.073.073-.077.068-.08.065-.083.061-.087.056-.089.051-.092.047-.094.042-.096.037-.098.033-.099.027-.101.022-.101.017-.102.011-.103.006-.103.001-.103-.004-.103-.01-.102-.015-.101-.02-.099-.025-.099-.03-.097-.036-.094-.04-.093-.045-.09-.05-.087-.055-.085-.059-.081-.063-.078-.067-.075-.071-.07-.075-.067-.079-.063-.081-.058-.085-.054-.088-.049-.091-.044-.093-.04-.095-.035-.097-.03-.098-.024-.1-.02-.101-.014-.102-.009-.103-.003-.103-.001-.125-.003-.104-.005-.1-.006-.098-.009-.095-.009-.092-.012-.091-.013-.088-.014-.086-.016-.084-.017-.083-.018-.081-.02-.08-.021-.079-.023-.079-.024-.077-.025-.076-.026-.077-.028-.076-.03-.076-.031-.076-.032-.077-.034-.076-.035-.077-.037-.077-.038-.079-.041-.079-.041-.079-.043-.08-.045-.082-.046-.082-.048-.084-.049-.084-.05-.084-.107-.179-.112-.181-.117-.188-.247-.394-.13-.209-.132-.217-.133-.222-.07-.118-.068-.119-.068-.12-.069-.123-.068-.125-.069-.128-.068-.13-.067-.133-.067-.135-.067-.139-.066-.141-.065-.143-.065-.146-.063-.15-.051-.124-.048-.123-.046-.123-.045-.125-.042-.122-.04-.124-.038-.123-.036-.122-.035-.123-.033-.122-.031-.122-.029-.122-.027-.12-.026-.121-.024-.121-.022-.119-.021-.119-.02-.119-.018-.119-.017-.118-.015-.117-.014-.116-.013-.117-.012-.115-.011-.115-.009-.115-.009-.114-.008-.116-.012-.221-.009-.222-.006-.22-.004-.217-.001-.215v-.213l.003-.211.003-.208.004-.206.005-.204.011-.399.01-.394.004-.192.003-.192.002-.189.001-.196.003-.103.008-.102.014-.102.019-.102.024-.1.029-.099.034-.097.039-.095.044-.093.049-.091.053-.088.058-.085.062-.082.066-.079.071-.076.074-.071.077-.068.081-.063.085-.06.087-.055.089-.05.093-.046.094-.041.097-.036.098-.031.1-.026.101-.02.101-.016.103-.01.103-.005.103.001zM24.33 20.697l.105.007.104.013.103.019.102.023.1.029.099.034.097.04.095.044.093.049.089.054.087.059.084.063.08.067.076.072.073.075.069.079.064.083.06.086.055.089.051.091.046.094.041.097.035.098.031.1.025.102.02.103.014.104.009.104.004.105v.041l.001.027.001.026.001.021.004.061.006.055.007.056.008.059.011.061.012.062.013.066.016.068.018.072.019.074.021.078.022.079.053.178.056.188.06.201.032.11.032.113.032.116.032.122.032.126.03.129.029.135.027.139.026.144.022.148.02.153.015.148.013.149.011.139.009.135.009.136.015.258.013.25.013.241.013.233.007.109.008.109.009.105.009.103.01.101.011.098.011.094.013.092.014.089.015.086.016.084.017.081.018.078.019.076.022.08.009.029.011.035.012.036.011.034.012.033.012.034.013.032.013.033.013.031.014.031.01.023.011.023.011.024.01.019.03.058.031.054.034.058.038.061.041.064.045.067.047.069.052.073.054.076.057.078.126.17.134.18.14.189.075.105.075.106.077.11.077.116.077.118.078.125.077.129.077.135.071.133.04.078.038.075.035.074.035.076.035.079.033.079.033.081.031.083.031.084.032.093.035.112.034.119.03.12.025.118.021.115.018.114.015.113.011.112.008.107.005.106.003.104.001.102-.002.099-.003.096-.005.094-.006.091-.007.088-.009.093-.019.158-.021.155-.022.146-.023.136-.021.124-.039.229-.016.098-.013.088-.011.086-.003.03-.004.032-.002.031-.002.028-.002.025v.023l-.001.02v.018l.001.015v.01l.001.009v.005l.008.012.051.092.046.094.042.096.036.098.031.1.026.101.021.103.015.104.009.104.005.105-.002.104-.006.105-.013.104-.017.103-.023.102-.029.101-.033.099-.039.097-.044.095-.048.093-.054.09-.058.087-.062.084-.067.081-.071.077-.075.073-.079.069-.082.065-.085.06-.089.056-.091.052-.094.046-.096.041-.098.037-.1.031-.102.026-.103.02-.103.015-.104.01-.105.004-.105-.001-.104-.007-.104-.012-.103-.017-.103-.023-.1-.029-.1-.033-.097-.039-.095-.044-.093-.048-.09-.054-.087-.058-.084-.063-.08-.066-.077-.071-.074-.075-.069-.079-.065-.082-.06-.086-.056-.088-.052-.087-.063-.116-.061-.118-.055-.12-.052-.119-.046-.121-.042-.12-.037-.12-.034-.12-.029-.119-.024-.116-.021-.117-.018-.114-.014-.111-.01-.11-.008-.109-.005-.107-.003-.103v-.101l.002-.098.003-.096.005-.092.007-.092.007-.088.009-.086.01-.089.02-.152.022-.15.022-.141.043-.248.019-.114.017-.103.014-.092.012-.084.009-.08.003-.026.002-.031.002-.028.001-.024.001-.024v-.05l-.001-.013v-.011l-.001-.006-.001-.005v-.004l-.001-.003-.004-.01-.006-.018-.008-.019-.007-.02-.009-.02-.009-.021-.01-.022-.012-.024-.011-.022-.009-.018-.031-.059-.031-.054-.035-.057-.038-.061-.042-.065-.044-.066-.049-.071-.052-.073-.054-.074-.122-.166-.13-.175-.137-.186-.074-.101-.074-.103-.076-.107-.077-.112-.078-.117-.077-.121-.078-.125-.077-.13-.077-.137-.072-.135-.04-.079-.036-.075-.035-.075-.035-.078-.037-.084-.035-.084-.034-.084-.032-.084-.031-.083-.03-.084-.028-.084-.027-.081-.026-.083-.026-.089-.044-.158-.041-.161-.038-.161-.033-.159-.03-.156-.026-.156-.024-.153-.021-.15-.018-.149-.016-.146-.015-.143-.012-.142-.011-.139-.01-.137-.009-.137-.015-.258-.014-.252-.012-.243-.014-.234-.007-.11-.007-.111-.009-.106-.008-.096-.006-.063-.008-.057-.009-.058-.01-.06-.013-.063-.014-.066-.016-.069-.018-.072-.02-.075-.021-.079-.023-.082-.025-.084-.056-.186-.059-.198-.062-.211-.033-.116-.032-.118-.032-.123-.031-.127-.03-.131-.029-.137-.027-.141-.025-.145-.022-.149-.019-.154-.015-.159-.011-.154-.004-.089-.003-.084-.002-.083-.001-.07.002-.105.007-.105.013-.103.019-.104.023-.102.029-.1.034-.099.04-.097.044-.095.049-.092.054-.09.059-.087.063-.083.067-.081.072-.076.075-.073.079-.068.083-.065.086-.06.089-.055.091-.051.094-.046.097-.04.098-.036.1-.031.102-.025.103-.02.104-.014.104-.009.105-.004.104.002zM38.889 18.693l.092.007.092.011.091.016.09.02.089.024.088.029.087.032.085.036.083.04.082.044.079.048.077.051.074.055.072.058.069.061.066.064.063.068.06.07.057.073.053.076.05.078.046.08.042.082.038.084.035.086.03.087.027.088.022.09.018.091.014.091.01.092.006.092.001.092-.002.153-.005.173-.008.172-.012.171-.014.169-.018.167-.02.167-.024.165-.026.164-.028.162-.032.162-.033.16-.036.157-.039.158-.04.156-.043.154-.044.152-.047.152-.049.151-.05.148-.051.147-.054.146-.055.145-.056.143-.057.142-.059.141-.06.14-.061.138-.062.138-.064.136-.063.135-.065.133-.066.133-.066.132-.067.13-.068.131-.067.128-.069.129-.137.25-.139.249-.139.244-.139.242-.14.239-.274.464-.269.456-.131.223-.128.22-.124.217-.121.213-.05.092-.045.084-.039.077-.036.074-.012.025-.014.03-.011.027-.01.024-.01.026-.009.023-.007.02-.006.019-.005.016-.004.014-.005.017-.003.015-.003.01-.002.011-.002.013-.001.01-.001.009-.001.01-.001.011v.011l-.001.01v.013l.001.015v.007l.019.196.019.211.02.239.009.13.008.127.007.132.004.137.001.14-.004.105-.009.125-.011.082-.011.069-.013.069-.015.068-.004.015-.022.085-.027.083-.029.082-.003.006-.029.072-.032.071-.036.069-.037.068-.041.067-.002.004-.051.076-.054.073-.057.071-.06.069-.064.065-.066.062-.003.003-.064.055-.067.053-.068.05-.071.047-.073.044-.075.04-.076.038-.078.034-.079.031-.081.027-.081.024-.003.001-.09.022-.09.018-.092.014-.092.01-.092.005-.092.001-.093-.003-.092-.008-.091-.011-.091-.016-.091-.021-.089-.024-.088-.028-.086-.033-.085-.036-.083-.04-.082-.044-.079-.048-.076-.051-.075-.055-.071-.058-.069-.062-.067-.065-.063-.067-.059-.071-.057-.073-.053-.075-.049-.078-.046-.08-.042-.083-.039-.084-.034-.086-.03-.087-.027-.088-.022-.09-.018-.091-.014-.091-.009-.092-.005-.092-.001-.093.003-.092.007-.092.005-.039v-.007l-.006-.084-.006-.092-.017-.202-.017-.187-.024-.258-.008-.124-.004-.113-.001-.115.002-.114.004-.113.008-.111.01-.111.013-.111.016-.109.017-.103.02-.106.023-.105.024-.099.026-.097.028-.098.03-.096.03-.092.032-.091.033-.088.033-.084.036-.086.035-.082.036-.08.039-.084.07-.145.074-.143.073-.137.073-.131.137-.244.137-.239.138-.237.137-.235.272-.46.269-.456.13-.223.129-.222.125-.22.121-.218.12-.219.057-.106.057-.107.055-.106.054-.106.054-.107.051-.104.051-.105.05-.106.048-.103.047-.103.045-.104.044-.102.043-.102.041-.102.04-.102.038-.1.037-.101.035-.1.034-.1.031-.098.031-.098.028-.099.028-.098.025-.097.023-.097.023-.097.02-.097.018-.095.017-.096.016-.096.013-.095.012-.095.01-.097.008-.094.006-.095.005-.095.003-.095.001-.117.003-.092.007-.092.012-.092.016-.091.02-.09.024-.089.028-.088.032-.087.036-.085.041-.083.043-.081.048-.08.051-.076.055-.075.058-.072.061-.069.065-.066.067-.063.071-.06.073-.057.075-.053.078-.05.08-.046.082-.042.084-.038.086-.035.087-.03.089-.027.089-.022.091-.018.091-.014.092-.01.093-.005.092-.002.092.004zM33.36 30.592l-.025.062.031-.063.035-.065-.041.066zm.249-.394l-.093.147.048-.065.058-.072.061-.069.065-.066.009-.008-.148.133zM49.469 11.613l.118.013.116.02.116.027.114.033.111.041.109.046.106.054.103.059.099.065.094.071.091.077.086.082.081.086.075.092.07.095.064.1.059.103.051.107.046.109.039.112.032.114.026.116.018.117.012.118.005.118v.057l.001.042.002.041.002.044.003.047.004.048.005.048.005.053.006.052.006.049.017.119.018.119.021.124.024.13.027.135.028.139.03.142.065.302.068.314.035.163.035.167.034.17.034.174.032.177.031.182.029.184.025.183.013.102.011.095.01.097.009.1.008.098.007.102.006.101.004.102.003.104.002.104-.001.106-.001.106-.004.109-.006.108-.007.109-.01.112-.012.113-.015.115-.018.112-.019.111-.022.11-.023.108-.025.105-.026.105-.029.105-.029.103-.031.101-.033.101-.033.099-.034.097-.036.099-.036.096-.037.094-.039.095-.039.094-.042.097-.078.178-.084.179-.085.177-.087.173-.088.171-.089.168-.09.164-.089.162-.089.159-.09.157-.172.298-.168.287-.159.273-.074.128-.071.124-.067.119-.063.113-.057.106-.053.101-.022.043-.022.044-.02.041-.018.039-.018.041-.018.041-.016.037-.016.039-.014.036-.014.036-.014.038-.012.035-.012.033-.009.031-.023.073-.018.066-.016.064-.014.063-.013.064-.012.062-.009.062-.009.063-.007.063-.006.065-.004.065-.004.066-.003.068-.002.069V25.613l.004.166.006.173.007.187.006.198.005.208.001.116v.114l-.002.119-.004.124-.006.126-.008.131-.012.133-.014.136-.018.14-.022.142-.026.144-.031.148-.036.149-.04.151-.044.145-.027.084-.026.077-.027.076-.029.078-.03.077-.031.076-.034.078-.034.076-.035.076-.037.078-.039.078-.04.077-.04.075-.042.076-.045.078-.044.076-.047.076-.048.077-.049.075-.051.075-.05.074-.054.076-.054.075-.056.075-.057.075-.059.074-.06.075-.061.073-.062.074-.052.06-.009.011-.007.008-.054.069-.074.097-.092.121-.106.14-.118.153-.126.16-.069.085-.069.086-.071.086-.075.087-.077.089-.08.089-.082.089-.087.09-.093.091-.1.094-.107.094-.113.091-.074.056-.07.05-.081.054-.085.052-.094.053-.104.054-.119.053-.136.053-.151.047-.172.04-.104.015-.094.012-.095.007-.019.001-.118.003-.119-.005-.118-.011-.117-.019-.116-.025-.114-.032-.112-.039-.109-.045-.107-.052-.103-.058-.1-.064-.096-.07-.091-.076-.087-.08-.082-.086-.076-.09-.072-.095-.065-.099-.06-.103-.053-.105-.047-.109-.04-.112-.034-.113-.027-.116-.02-.117-.013-.117-.006-.119.001-.118.008-.119.015-.117.022-.117.028-.115.036-.113.042-.111.049-.108.055-.105.061-.101.067-.098.072-.094.079-.089.083-.084.088-.08.092-.074.097-.068.101-.062.104-.057.034-.015.032-.036.04-.047.044-.051.046-.055.047-.059.047-.058.101-.129.099-.128.098-.129.096-.126.094-.123.091-.116.056-.069.047-.055.046-.054.033-.039.033-.039.029-.036.029-.037.026-.035.026-.035.025-.033.022-.032.023-.034.021-.03.02-.031.018-.029.017-.028.017-.029.015-.025.014-.026.015-.028.013-.024.011-.023.011-.024.011-.024.011-.023.009-.021.009-.023.008-.021.008-.02.007-.021.007-.02.004-.013.014-.046.011-.041.009-.039.009-.041.008-.043.007-.044.005-.045.006-.049.004-.051.003-.053.003-.057.002-.059.001-.063v-.069l-.001-.067-.003-.159-.006-.169-.007-.185-.006-.201-.005-.213-.001-.119v-.118l.001-.122.003-.127.005-.13.008-.134.01-.137.013-.14.016-.143.02-.147.023-.149.027-.152.031-.153.035-.157.04-.159.045-.16.047-.156.028-.085.028-.084.03-.082.029-.081.032-.083.033-.084.034-.083.035-.084.036-.082.038-.084.04-.086.041-.084.041-.083.044-.085.076-.145.078-.144.08-.144.08-.143.081-.142.083-.142.163-.281.164-.28.162-.281.078-.136.077-.136.074-.136.073-.133.069-.132.067-.129.064-.127.06-.124.056-.121.055-.123.022-.053.023-.055.022-.054.022-.055.02-.053.018-.05.018-.05.016-.049.015-.046.013-.045.013-.042.011-.041.01-.04.009-.039.008-.035.006-.032.005-.031.005-.029.003-.026.003-.026.003-.033.003-.036.001-.039.002-.039.001-.041v-.043l-.001-.045-.001-.046-.002-.048-.003-.049-.004-.05-.004-.054-.005-.052-.006-.055-.006-.058-.007-.052-.017-.124-.019-.124-.022-.129-.024-.133-.027-.137-.028-.141-.031-.145-.031-.148-.068-.309-.068-.317-.035-.166-.034-.168-.033-.17-.032-.174-.03-.178-.029-.181-.025-.179-.012-.099-.011-.095-.01-.094-.009-.098-.007-.097-.007-.098-.005-.1-.004-.102-.002-.1-.001-.084.002-.119.01-.118.016-.117.023-.117.031-.114.037-.113.043-.11.05-.108.056-.104.063-.101.068-.097.074-.092.079-.089.084-.083.089-.078.094-.073.097-.067.102-.061.105-.056.108-.048.111-.043.113-.035.115-.029.116-.022.118-.015.118-.009.118-.001.119.006zm-5.066 17.606l-.034.005.11-.009-.076.004z"
    fill="#633"
  />
</svg>
