<svg viewBox="0 0 180 180" xmlns="http://www.w3.org/2000/svg" fill-rule="evenodd" clip-rule="evenodd" stroke-linejoin="round" stroke-miterlimit="2">
    <g id="shocked-eyes">
        <path d="M12.808.134c6.593-.39 13.066 4.264 13.592 12.905.21 3.441-2.173 8.465-4.348 10.024-2.91 2.086-9.07 3.616-12.736 2.238C3.827 23.238-1.185 18.447.248 11.145 1.718 3.655 6.214.523 12.808.134z" fill="#31323d"/>
        <path d="M15.539 7.976c1.913-.165 3.595 1.343 3.754 3.364.158 2.021-1.266 3.796-3.18 3.96-1.913.164-3.595-1.344-3.753-3.365-.159-2.021 1.266-3.795 3.179-3.959zM9.341 9.732c.926-.055 1.73.785 1.794 1.873.064 1.089-.635 2.017-1.561 2.072-.925.055-1.729-.785-1.794-1.874-.064-1.088.636-2.016 1.561-2.071z" fill="#fff"/>
        <g>
            <path d="M71.867.035C65.162-.45 58.511 4.169 57.855 12.904c-.261 3.478 1.349 7.475 3.54 9.081 2.933 2.151 7.365 3.353 11.344 3.118 4.535-.268 10.118-3.083 11.319-12.02C85.149 4.965 78.572.52 71.867.035z" fill="#31323d"/>
            <path d="M68.469 8.089c-1.944-.192-3.677 1.31-3.866 3.352-.19 2.043 1.235 3.858 3.18 4.05 1.945.193 3.677-1.309 3.867-3.352.189-2.042-1.236-3.857-3.181-4.05zM74.487 8.892c-.941-.068-1.771.77-1.851 1.871-.081 1.1.618 2.049 1.559 2.117.942.068 1.771-.77 1.852-1.87.08-1.101-.618-2.05-1.56-2.118z" fill="#fff"/>
        </g>
    </g>
</svg>
