<svg viewBox="0 0 180 180" xmlns="http://www.w3.org/2000/svg" fill-rule="evenodd" clip-rule="evenodd" stroke-linecap="round" stroke-miterlimit="10">
    <g id="shocked-eye-frame">
        <path d="M110.239 5.568c13.23 6.639-4.064 37.558-17.189 44.449-14.173 7.44-53.084 7.603-67.848.194C11.464 43.318-9.161 12.724 4.469 5.568c14.173-7.44 91.006-7.408 105.77 0zM47.203 25.157c.394 3.821.273 11.79.273 11.79s-13.571 3.632-20.014 3.492c-7.246-.157-16.974-6.518-15.716-23.368.139-1.863.251-3.037 1.847-4.377 1.477-1.241 4.963-2.457 7.449-2.879 6.626-1.125 11.474-.36 12.752-.099 8.496 1.727 12.717 8.715 13.409 15.441zm58.384 4.671c1.235-3.105 1.877-7.033 1.578-11.927-.11-1.813-.499-3.37-2.033-4.695-1.419-1.226-4.324-2.037-6.907-2.483-6.44-1.111-11.151-.502-12.397-.265-6.298 1.19-10.233 5.371-12.093 10.177a19.075 19.075 0 00-1.22 4.837c-.433 3.709-.544 10.555-.544 10.555s13.254 4.113 19.52 4.062c4.985-.04 11.224-2.829 14.096-10.261z" fill="#ebebeb"/>
        <g fill="none" fill-rule="nonzero" stroke="#31323d">
            <path d="M46.515 25.14c.393 3.82.272 11.79.272 11.79s-13.57 3.632-20.013 3.492c-7.246-.157-16.974-6.518-15.716-23.368.139-1.863.251-3.037 1.847-4.378 1.476-1.24 4.963-2.457 7.449-2.879 6.626-1.124 11.474-.359 12.752-.098 8.495 1.726 12.716 8.715 13.409 15.441z" stroke-width="1.25"/>
            <path d="M71.827 25.454c-.433 3.71-.544 10.555-.544 10.555s13.254 4.114 19.52 4.063c7.047-.057 16.602-5.609 15.603-22.008-.11-1.812-.499-3.37-2.033-4.695-1.419-1.226-4.324-2.037-6.907-2.483-6.44-1.111-11.151-.502-12.397-.265-8.283 1.565-12.479 8.304-13.242 14.833z" stroke-width="1.22"/>
        </g>
        <g id="eye-brows" fill="#32333e">
            <path d="M42.099 13.879s-4.264-7.37-17.304-7.322c-8.664.032-12.348 2.879-14.008 4.304-2.245 1.928-4.732 7.61-4.732 7.61s5.965-7.318 14.85-9.011c5.847-1.115 13.224-.321 15.945 1.099 1.486.776 1.545 1.032 5.249 3.32zM76.402 15.13s5.428-6.967 14.929-7.359c8.414-.347 12.05 1.135 14.86 3.09 2.722 1.893 5.289 8.249 5.289 8.249s-4.909-7.682-14.458-8.919c-11.277-1.46-15.832 1.528-17.233 2.327-.954.543-3.387 2.612-3.387 2.612z"/>
        </g>
    </g>
</svg>
