<svg
  viewBox="0 0 300 300"
  xmlns="http://www.w3.org/2000/svg"
  xmlns:serif="http://www.serif.com/"
  fill-rule="evenodd"
  clip-rule="evenodd"
  stroke-linecap="round"
  stroke-miterlimit="10"
>
  <path
    serif:id="(Rectangle)"
    d="M107.836-.001s5.37 16.67 5.37 24.02c0 6.93-5.37 20.1-5.37 20.1H6.226s-6.23-14.27-6.23-21.63c0-7.35 6.23-22.49 6.23-22.49h101.61zm-61.74 23.72c.15 3.54-.39 10.86-.39 10.86s-12.68 2.6-18.59 2.12c-6.66-.53-15.33-6.92-13.19-22.34.18-1.29.55-3.19 1.55-3.98 1.4-1.09 5.08-1.93 7.39-2.18 6.16-.68 10.57.29 11.74.6 7.71 2.05 11.21 8.7 11.49 14.92zm23.67-1.06c-.16 3.53.39 10.85.39 10.85s12.67 2.61 18.59 2.13c6.65-.54 15.25-6.92 13.18-22.34-.23-1.71-.4-2.78-1.93-3.93-1.43-1.06-4.7-1.99-7.01-2.24-6.15-.67-10.57.29-11.73.6-7.72 2.05-11.22 8.71-11.49 14.93z"
    fill="#ebebeb"
  />
  <path
    d="M1306.69 1121.9c1.22 29.52-4.05 90.61-4.05 90.61s-114.45 20.92-167.78 16.54c-59.99-4.92-137.831-58.8-117.76-187.36 1.68-10.78 5.06-26.64 14.17-33.14 12.69-9.034 45.94-15.811 66.77-17.775 55.54-5.236 95.32 3.119 105.77 5.779 69.5 17.596 100.75 73.386 102.88 125.346z"
    fill="none"
    stroke="#31323d"
    stroke-width="10"
    transform="matrix(.11608 -.0009 .0007 .12627 -105.96 -116.782)"
  />
  <path
    d="M1306.69 1121.9c1.22 29.52-4.05 90.61-4.05 90.61s-114.45 20.92-167.78 16.54c-59.99-4.92-137.217-58.71-117.76-187.36 2.15-14.22 3.71-23.17 17.65-32.64 12.91-8.77 42.46-16.311 63.29-18.275 55.54-5.236 95.32 3.119 105.77 5.779 69.5 17.596 100.75 73.386 102.88 125.346z"
    fill="none"
    stroke="#31323d"
    stroke-width="10"
    transform="matrix(-.11523 -.0009 -.0007 .12627 220.32 -117.78)"
  />
  <g>
    <path
      d="M43.494 13.131s-2.985-5.873-9.942-7.685c-2.238-.583-4.843-.713-7.812-.505-6.851.481-8.589 1.867-11.562 3.441-2.656 1.406-6.286 6.007-6.286 6.007s6.08-4.955 12.938-6.807c5.356-1.447 9.578-1.057 14.031.043 1.058.26 2.902 1.05 4.674 2.114 2.17 1.304 3.96 3.392 3.96 3.392z"
      fill="#32333e"
    />
    <path
      d="M71.979 12.274s2.964-6.078 9.852-7.965c2.214-.606 4.792-.745 7.73-.535 6.778.484 8.551 1.963 11.433 3.537 2.499 1.364 5.86 5.906 5.86 5.906s-5.659-4.82-12.44-6.722c-5.297-1.487-9.475-1.076-13.883.07-1.047.272-2.874 1.09-4.629 2.194-2.149 1.352-3.923 3.515-3.923 3.515z"
      fill="#32333e"
    />
  </g>
</svg>
