<svg viewBox="0 0 220 220" xmlns="http://www.w3.org/2000/svg" fill-rule="evenodd" clip-rule="evenodd" stroke-linejoin="round" stroke-miterlimit="2">
    <path d="M13.224.655c6.084 0 11.783 4.631 11.798 12.605.006 3.175.397 8.333-.595 8.785-2.172.991-12.676 2.779-16.141 1.774C2.341 22.096-.497 17.245.071 10.414.68 3.109 7.14.655 13.224.655z" fill="#31323d"/>
    <path d="M19.526 13.681c1.768-.047 3.233 1.431 3.269 3.298.036 1.867-1.37 3.421-3.138 3.468-1.768.047-3.233-1.43-3.269-3.297-.036-1.867 1.37-3.421 3.138-3.469z" fill="#fff"/>
    <ellipse cx="13.346" cy="13.936" rx="1.548" ry="1.82" fill="#fff"/>
    <g>
        <path d="M60.422.04c-6.025.308-11.673 5.986-12.103 11.987-.316 4.422.645 10.195.645 10.195s11.495 3.602 17.538 1.402c7.525-2.739 8.931-8.853 8.161-13.41C73.363 2.526 68.653-.381 60.422.04z" fill="#31323d"/>
        <path d="M57.327 13.912c-1.768-.047-3.233 1.43-3.269 3.297-.036 1.867 1.37 3.422 3.138 3.469 1.768.047 3.233-1.431 3.269-3.298.036-1.867-1.37-3.421-3.138-3.468z" fill="#fff"/>
        <ellipse cx="51.819" cy="14.866" rx="1.548" ry="1.82" fill="#fff"/>
    </g>
</svg>
