<svg
  class="treat"
  viewBox="0 0 120 120"
  xmlns="http://www.w3.org/2000/svg"
  fill-rule="evenodd"
  clip-rule="evenodd"
  stroke-linecap="round"
  stroke-linejoin="round"
  stroke-miterlimit="1.5"
>
  <path
    d="M1358.63 1510.64c56.41-2.46 80.1 34.79 127.38 43.06 52.82 9.23 71.55-74.54 75.91 10.53 3.48 67.8-29.72 11.21-81.13 19.43-48.16 7.7-60.77 21.19-112.57 23.42-63.67 2.74-109.07-42.19-109.07-42.19s13.58-50.5 99.48-54.25z"
    fill="#f60"
    stroke="#31323d"
    stroke-width="9.75"
    transform="matrix(.24105 -.0352 .05206 .3566 -381.358 -487.965)"
  />
  <path
    d="M1358.63 1510.64c56.41-2.46 80.1 34.79 127.38 43.06 52.82 9.23 71.55-74.54 75.91 10.53 3.48 67.8-27.05 1.91-78.47 10.13-48.15 7.7-63.43 30.49-115.23 32.72-63.67 2.74-109.07-42.19-109.07-42.19s13.58-50.5 99.48-54.25z"
    fill="#f60"
    stroke="#31323d"
    stroke-width="8.7"
    transform="matrix(.2548 -.0372 .0598 .40963 -412.92 -559.977)"
  />
  <circle
    cx="1227.43"
    cy="1485.75"
    r="3.671"
    fill="#f60"
    stroke="#31323d"
    stroke-width="4.07"
    transform="matrix(.73686 0 0 .73686 -891.926 -1065.714)"
  />
</svg>
